<svg viewBox="0 0 210 60" version="1.1" preserveAspectRatio="xMidYMid" xmlns="http://www.w3.org/2000/svg"> <path fill="#ff5f27" d="m123.92 0v59.119h10.931v-59.119h-10.931zm-16.001 8.7053v50.414h10.934v-50.414h-10.934zm-76.877 9.0717-11.848 16.63-7.386-10.361h-11.809l13.289 18.649-11.633 16.328 11.79 0.06432 5.7494-8.104 5.8361 8.104 11.709-0.05593-11.641-16.337 17.699-24.919h-11.753zm126.84 6.2808c-3.6438 0-6.8554 0.73344-9.6365 2.2064-2.7794 1.4711-4.929 3.5758-6.4486 6.3087-1.5177 2.733-2.2763 5.9227-2.2763 9.5666 0 3.6438 0.75861 6.8102 2.2763 9.4966 1.5194 2.6881 3.6691 4.7311 6.4486 6.1326 2.7812 1.4013 5.9926 2.1029 9.6365 2.1029 1.8685 0 3.8927-0.25817 6.0654-0.77181 2.1727-0.51365 4.0511-1.4004 5.6404-2.6622l-3.0844-7.7097c-1.5409 0.7481-2.9197 1.2879-4.1331 1.6135-1.2152 0.32752-2.4797 0.48937-3.7864 0.48937-2.196 0-4.0294-0.79501-5.5006-2.3826-1.473-1.5893-2.2092-3.6923-2.2092-6.3087 0-2.6166 0.73625-4.7662 2.2092-6.4485 1.4711-1.6823 3.3047-2.5224 5.5006-2.5224 1.3548 0 2.6176 0.15056 3.7864 0.45302 1.1669 0.30604 2.5438 0.83188 4.1331 1.58l3.0844-7.6398c-1.6358-1.2152-3.5506-2.1049-5.7466-2.665-2.196-0.56197-4.1838-0.83892-5.9592-0.83892zm-70.94 0.04754c-3.4577 0-6.5306 0.7353-9.217 2.2064-2.6881 1.473-4.7808 3.574-6.2752 6.3087-1.4962 2.733-2.2399 5.9227-2.2399 9.5666 0 5.5624 1.7849 9.9068 5.3607 13.037 3.574 3.1301 8.4701 4.698 14.684 4.698 2.7562 0 5.2912-0.34989 7.6035-1.0515 2.314-0.69978 4.2636-1.6361 5.8529-2.8048l-3.0844-7.637c-3.1768 1.7754-6.3797 2.6622-9.6029 2.6622-4.9539 0-7.9438-1.9832-8.9709-5.9564h21.798v-3.2942c0-3.3181-0.59489-6.3078-1.7869-8.9709-1.1919-2.6631-2.9796-4.7894-5.3635-6.3786l0.0028-0.0028c-2.381-1.5878-5.302-2.3825-8.7612-2.3825zm103.83 0.06432c-3.6456 0-6.8803 0.72222-9.7064 2.17-2.8277 1.4497-5.0486 3.5292-6.6611 6.2388-1.6124 2.7096-2.4189 5.8873-2.4189 9.533 0 3.7853 0.78301 7.0201 2.349 9.7064s3.7504 4.7208 6.5548 6.099c2.8027 1.3781 6.0477 2.0666 9.7399 2.0666 3.6456 0 6.8946-0.71186 9.7455-2.1365 2.8492-1.4246 5.0794-3.4695 6.6918-6.1326 1.6125-2.6631 2.4189-5.8174 2.4189-9.4631 0-3.7853-0.7848-7.033-2.349-9.7427-1.5661-2.7096-3.7625-4.776-6.5884-6.2025-2.8277-1.4246-6.0858-2.1365-9.7763-2.1365zm-138.17 0.01678c-4.3938 0-7.8503 0.97009-10.372 2.9083-2.5235 1.94-3.7864 4.5884-3.7864 7.953 0 2.6631 1.0982 4.8614 3.2942 6.5884 2.196 1.7289 5.0004 3.1787 8.4116 4.3456 1.4478 0.46712 2.5797 0.98166 3.3977 1.5436 0.8179 0.56018 1.2276 1.1438 1.2276 1.7506 0 0.70157-0.43311 1.2498-1.2975 1.6471-0.86443 0.39732-1.8578 0.59564-2.9782 0.59564-1.2152 0-2.6997-0.2217-4.4519-0.66555s-3.3535-1.0154-4.8015-1.717l-3.2215 7.1504c1.5875 1.2617 3.7138 2.1971 6.3786 2.802 2.658 0.606 4.922 0.911 6.79 0.911 4.6263 0 8.1437-0.95794 10.551-2.8747 2.4071-1.915 3.6074-4.6248 3.6074-8.1292 0-4.8591-3.8999-8.6438-11.703-11.353-2.9451-1.0266-4.4155-1.9162-4.4155-2.665 0-0.65503 0.35168-1.1902 1.0515-1.6107 0.70157-0.42058 1.5884-0.63199 2.6622-0.63199 2.5235 0 5.4214 0.72487 8.6913 2.1728l3.1544-7.1477c-1.634-1.214-3.632-2.114-5.989-2.698-2.361-0.585-4.431-0.876-6.205-0.876zm34.063 8.9625c1.6358 0 2.9333 0.5249 3.8926 1.5772 0.9557 1.0506 1.5748 2.4406 1.854 4.1695h-11.493c0.18613-1.7289 0.80447-3.119 1.8568-4.1695 1.0506-1.0523 2.349-1.5772 3.8898-1.5772zm104.18 0.12864c2.196 0 3.9576 0.84277 5.2908 2.5252 1.3298 1.6806 1.9994 3.832 1.9994 6.4485 0 2.6166-0.67819 4.7213-2.033 6.3087-1.3548 1.5893-3.1556 2.3826-5.3999 2.3826-2.2424 0-4.0292-0.80638-5.3607-2.4189-1.3316-1.6107-1.9966-3.7491-1.9966-6.4122s0.67639-4.8025 2.033-6.415c1.3548-1.6107 3.1762-2.4189 5.467-2.4189z"></path> </svg>